TITLE ""
FILE "1Q_t_1869-1877.mp3" MP3
  TRACK 01 AUDIO
    TITLE "1Q_t_1869-1877_01"
    INDEX 01 00:00:00
  TRACK 02 AUDIO
    TITLE "1Q_t_1869-1877_02"
    INDEX 01 00:00:08
  TRACK 03 AUDIO
    TITLE "1Q_t_1869-1877_03"
    INDEX 01 00:01:12
  TRACK 04 AUDIO
    TITLE "1Q_t_1869-1877_04"
    INDEX 01 00:01:23
  TRACK 05 AUDIO
    TITLE "1Q_t_1869-1877_05"
    INDEX 01 00:02:27
  TRACK 06 AUDIO
    TITLE "1Q_t_1869-1877_06"
    INDEX 01 00:02:37
  TRACK 07 AUDIO
    TITLE "1Q_t_1869-1877_07"
    INDEX 01 00:06:56
  TRACK 08 AUDIO
    TITLE "1Q_t_1869-1877_08"
    INDEX 01 00:07:30
  TRACK 09 AUDIO
    TITLE "1Q_t_1869-1877_09"
    INDEX 01 00:08:49
  TRACK 10 AUDIO
    TITLE "1Q_t_1869-1877_10"
    INDEX 01 00:08:59
  TRACK 11 AUDIO
    TITLE "1Q_t_1869-1877_11"
    INDEX 01 00:11:20
  TRACK 12 AUDIO
    TITLE "1Q_t_1869-1877_12"
    INDEX 01 00:11:28
  TRACK 13 AUDIO
    TITLE "1Q_t_1869-1877_13"
    INDEX 01 00:16:50
  TRACK 14 AUDIO
    TITLE "1Q_t_1869-1877_14"
    INDEX 01 00:17:21
  TRACK 15 AUDIO
    TITLE "1Q_t_1869-1877_15"
    INDEX 01 00:18:16
  TRACK 16 AUDIO
    TITLE "1Q_t_1869-1877_16"
    INDEX 01 00:18:26
  TRACK 17 AUDIO
    TITLE "1Q_t_1869-1877_17"
    INDEX 01 00:20:37
  TRACK 18 AUDIO
    TITLE "1Q_t_1869-1877_18"
    INDEX 01 00:20:42
  TRACK 19 AUDIO
    TITLE "1Q_t_1869-1877_19"
    INDEX 01 00:24:56
  TRACK 20 AUDIO
    TITLE "1Q_t_1869-1877_20"
    INDEX 01 00:25:30
  TRACK 21 AUDIO
    TITLE "1Q_t_1869-1877_21"
    INDEX 01 00:26:51
  TRACK 22 AUDIO
    TITLE "1Q_t_1869-1877_22"
    INDEX 01 00:27:23
  TRACK 23 AUDIO
    TITLE "1Q_t_1869-1877_23"
    INDEX 01 00:28:52
  TRACK 24 AUDIO
    TITLE "1Q_t_1869-1877_24"
    INDEX 01 00:28:60
  TRACK 25 AUDIO
    TITLE "1Q_t_1869-1877_25"
    INDEX 01 00:31:11
  TRACK 26 AUDIO
    TITLE "1Q_t_1869-1877_26"
    INDEX 01 00:31:21
  TRACK 27 AUDIO
    TITLE "1Q_t_1869-1877_27"
    INDEX 01 00:37:04
  TRACK 28 AUDIO
    TITLE "1Q_t_1869-1877_28"
    INDEX 01 00:37:51
  TRACK 29 AUDIO
    TITLE "1Q_t_1869-1877_29"
    INDEX 01 00:38:62
  TRACK 30 AUDIO
    TITLE "1Q_t_1869-1877_30"
    INDEX 01 00:38:74
  TRACK 31 AUDIO
    TITLE "1Q_t_1869-1877_31"
    INDEX 01 00:40:24
  TRACK 32 AUDIO
    TITLE "1Q_t_1869-1877_32"
    INDEX 01 00:40:33
  TRACK 33 AUDIO
    TITLE "1Q_t_1869-1877_33"
    INDEX 01 00:46:54
  TRACK 34 AUDIO
    TITLE "1Q_t_1869-1877_34"
    INDEX 01 00:47:27
  TRACK 35 AUDIO
    TITLE "1Q_t_1869-1877_35"
    INDEX 01 00:48:41
  TRACK 36 AUDIO
    TITLE "1Q_t_1869-1877_36"
    INDEX 01 00:48:50
  TRACK 37 AUDIO
    TITLE "1Q_t_1869-1877_37"
    INDEX 01 00:51:27
  TRACK 38 AUDIO
    TITLE "1Q_t_1869-1877_38"
    INDEX 01 00:51:37
  TRACK 39 AUDIO
    TITLE "1Q_t_1869-1877_39"
    INDEX 01 00:56:68
  TRACK 40 AUDIO
    TITLE "1Q_t_1869-1877_40"
    INDEX 01 00:57:42
  TRACK 41 AUDIO
    TITLE "1Q_t_1869-1877_41"
    INDEX 01 00:58:49
  TRACK 42 AUDIO
    TITLE "1Q_t_1869-1877_42"
    INDEX 01 00:58:59
  TRACK 43 AUDIO
    TITLE "1Q_t_1869-1877_43"
    INDEX 01 01:01:33
  TRACK 44 AUDIO
    TITLE "1Q_t_1869-1877_44"
    INDEX 01 01:01:43
  TRACK 45 AUDIO
    TITLE "1Q_t_1869-1877_45"
    INDEX 01 01:07:22
  TRACK 46 AUDIO
    TITLE "1Q_t_1869-1877_46"
    INDEX 01 01:07:69
  TRACK 47 AUDIO
    TITLE "1Q_t_1869-1877_47"
    INDEX 01 01:09:19
  TRACK 48 AUDIO
    TITLE "1Q_t_1869-1877_48"
    INDEX 01 01:09:29
  TRACK 49 AUDIO
    TITLE "1Q_t_1869-1877_49"
    INDEX 01 01:11:71
  TRACK 50 AUDIO
    TITLE "1Q_t_1869-1877_50"
    INDEX 01 01:12:04
  TRACK 51 AUDIO
    TITLE "1Q_t_1869-1877_51"
    INDEX 01 01:17:52
  TRACK 52 AUDIO
    TITLE "1Q_t_1869-1877_52"
    INDEX 01 01:18:26
  TRACK 53 AUDIO
    TITLE "1Q_t_1869-1877_53"
    INDEX 01 01:19:31
  TRACK 54 AUDIO
    TITLE "1Q_t_1869-1877_54"
    INDEX 01 01:19:39
  TRACK 55 AUDIO
    TITLE "1Q_t_1869-1877_55"
    INDEX 01 01:21:73
  TRACK 56 AUDIO
    TITLE "1Q_t_1869-1877_56"
    INDEX 01 01:22:06
  TRACK 57 AUDIO
    TITLE "1Q_t_1869-1877_57"
    INDEX 01 01:28:09
